# xmcd
#
# Track frame offsets: 
#        150
#        20146
#        48004
#        63272
#        78492
#        99163
#        124268
#        142468
#        163108
#        188010
#        212247
#        228394
#        250542
#        272182
#        303711
#        319215
#        342222
#
# Disc length: 4800 seconds
#
# Revision: 0
# Processed by: cddbd v1.5.2PL0 Copyright (c) Steve Scherf et al.
# Submitted via: ExactAudioCopy v1.3
#
DISCID=f812be11
DTITLE=Various Artist - Trail Of The Wolf - vol.09 - B-Side  CD2
DYEAR=2019
DGENRE=Blues
TTITLE0=Dudley Taft - Feeling Good Now
TTITLE1=Rick Fowler - Walk Softly
TTITLE2=Kenny Neal - Money Don't Make The Man
TTITLE3=Lew Jetton and 61 South - Two Lane Road
TTITLE4=Buddy Guy - Feels Like Rain
TTITLE5=David Gogo - Reap What You Sow
TTITLE6=Fred Chapelier and Miguel M - The Chokin' Kind
TTITLE7=Dave Walker - Nine Below Zero
TTITLE8=Little Charlie and The Nightcats - Quittin' Time
TTITLE9=Pinetop Perkins and Friends - Bad Luck Baby
TTITLE10=Big Jack Johnson - Big Foot Woman
TTITLE11=Alex Schultz - Who Will The Next Fool Be
TTITLE12=Bernie Marsden - So Long, Farewell, You're Gone
TTITLE13=Aynsley Lister - Nine Need Her So Bad
TTITLE14=The Hitman Blues Band - I'm Coming For You
TTITLE15=Tab Benoit - Shelter Me
TTITLE16=Mike Goudreau - Leaving For Paris
EXTD=
EXTT0=
EXTT1=
EXTT2=
EXTT3=
EXTT4=
EXTT5=
EXTT6=
EXTT7=
EXTT8=
EXTT9=
EXTT10=
EXTT11=
EXTT12=
EXTT13=
EXTT14=
EXTT15=
EXTT16=
PLAYORDER=
